<svg xmlns="http://www.w3.org/2000/svg" viewBox="0 0 1600 900" preserveAspectRatio="xMidYMid slice" role="img" aria-labelledby="title"><title>Seattle cityscape placeholder</title><defs><linearGradient id="sky" x1="0" y1="0" x2="0" y2="1"><stop stop-color="#8ebbd4"/><stop offset=".55" stop-color="#d7e3df"/><stop offset="1" stop-color="#f4c7a1"/></linearGradient><linearGradient id="water" x1="0" y1="0" x2="1" y2="0"><stop stop-color="#345d7d"/><stop offset="1" stop-color="#6f9aa5"/></linearGradient></defs><rect width="1600" height="900" fill="url(#sky)"/><circle cx="1270" cy="210" r="115" fill="#ffd69a" opacity=".8"/><path d="M0 540 160 440l120 90 170-165 160 132 165-202 170 160 140-110 180 130 140-105 195 165v225H0Z" fill="#59747a" opacity=".85"/><path d="M0 625h1600v275H0z" fill="url(#water)"/><path d="M0 640c250-32 430 38 680 0s480-32 920 0" fill="none" stroke="#c4d9d4" stroke-width="8" opacity=".5"/><g fill="#263f52"><path d="M280 485h62v155h-62zM290 395h42v90h-42zM300 355h22v40h-22z"/><path d="M690 468h76v172h-76zM700 350h56v118h-56zM713 285h30v65h-30z"/><path d="M1030 490h95v150h-95zM1050 370h55v120h-55zM1064 305h28v65h-28z"/><path d="M1325 475h70v165h-70zM1335 390h50v85h-50z"/></g><g fill="#dce8e0" opacity=".65"><rect x="292" y="415" width="8" height="10"/><rect x="310" y="450" width="8" height="10"/><rect x="710" y="400" width="9" height="11"/><rect x="735" y="430" width="9" height="11"/><rect x="1060" y="410" width="9" height="11"/><rect x="1085" y="440" width="9" height="11"/></g></svg>
